<svg width="244" height="39" viewBox="0 0 244 39" fill="none" xmlns="http://www.w3.org/2000/svg">
    <g clip-path="url(#clip0_3_111)">
        <path d="M118.011 30.34V10.902H131.458V14.7908H121.896V18.9274H130.323V22.8162H121.896V30.3431H118.011V30.34Z" fill="white"/>
        <path d="M134.334 30.34V10.068H138.168V30.34H134.334Z" fill="white"/>
        <path d="M146.266 30.618C144.82 30.618 143.692 30.1285 142.886 29.1465C142.078 28.1645 141.676 26.8138 141.676 25.0915V15.4556H145.509V23.759C145.509 24.741 145.711 25.4904 146.116 26.007C146.519 26.5268 147.092 26.7836 147.83 26.7836C148.569 26.7836 149.154 26.5237 149.584 26.007C150.014 25.4904 150.228 24.738 150.228 23.759V15.4556H154.062V30.34H150.228V28.231C149.102 29.8233 147.782 30.618 146.266 30.618Z" fill="white"/>
        <path d="M157.569 13.8178V10.068H161.604V13.8178H157.569ZM157.67 30.343V15.4586H161.504V30.343H157.67Z" fill="white"/>
        <path d="M170.663 30.618C168.982 30.618 167.533 29.923 166.323 28.5361C165.112 27.1462 164.505 25.2577 164.505 22.8706C164.505 20.4835 165.106 18.6252 166.307 17.2474C167.509 15.8695 168.961 15.1775 170.66 15.1775C172.359 15.1775 173.746 15.9178 174.872 17.3984V10.068H178.706V30.34H174.872V28.2007C173.795 29.8112 172.392 30.618 170.66 30.618H170.663ZM169.299 25.8831C169.937 26.6506 170.721 27.0344 171.645 27.0344C172.569 27.0344 173.347 26.6506 173.978 25.8831C174.609 25.1156 174.924 24.1094 174.924 22.8706C174.924 21.6317 174.609 20.6799 173.978 19.9124C173.347 19.1449 172.569 18.7612 171.645 18.7612C170.721 18.7612 169.937 19.1449 169.299 19.9124C168.659 20.6799 168.342 21.6861 168.342 22.925C168.342 24.1638 168.662 25.1156 169.299 25.8831Z" fill="white"/>
        <path d="M181.685 23.759V19.704H189.457V23.759H181.685Z" fill="white"/>
        <path d="M192.836 30.34V10.902H196.722V26.4542H205.527V30.3431H192.836V30.34Z" fill="white"/>
        <path d="M208.126 13.8178V10.068H212.164V13.8178H208.126ZM208.227 30.343V15.4586H212.06V30.343H208.227Z" fill="white"/>
        <path d="M215.669 30.34V15.4555H219.502V17.5646C220.628 15.9722 221.948 15.1775 223.464 15.1775C224.98 15.1775 226.039 15.667 226.844 16.649C227.652 17.631 228.055 18.9817 228.055 20.704V30.34H224.221V22.0366C224.221 21.0545 224.019 20.3052 223.614 19.7885C223.211 19.2718 222.638 19.0119 221.9 19.0119C221.162 19.0119 220.576 19.2718 220.146 19.7885C219.716 20.3082 219.502 21.0576 219.502 22.0366V30.34H215.669Z" fill="white"/>
        <path d="M237.793 30.6723C235.741 30.6723 234.051 29.9562 232.721 28.5209C231.391 27.0857 230.726 25.2213 230.726 22.9249C230.726 20.7584 231.358 18.9273 232.617 17.4256C233.88 15.9269 235.475 15.1775 237.412 15.1775C239.547 15.1775 241.179 15.954 242.307 17.5102C243.433 19.0663 243.997 20.982 243.997 23.2573C243.997 23.4779 243.979 23.8495 243.945 24.3692H234.536C234.722 25.312 235.1 26.0342 235.67 26.5357C236.241 27.0343 236.967 27.2851 237.839 27.2851C239.035 27.2851 240.126 26.7775 241.118 25.7592L243.314 27.8985C241.95 29.7507 240.108 30.6754 237.787 30.6754L237.793 30.6723ZM234.487 21.7314H240.264C240.145 20.7675 239.84 20 239.343 19.4259C238.845 18.8518 238.202 18.5647 237.412 18.5647C236.622 18.5647 235.994 18.8488 235.481 19.4108C234.969 19.9758 234.636 20.7494 234.484 21.7284L234.487 21.7314Z" fill="white"/>
        <path d="M44.3561 0H33.4738V39H59.7282V30.3431H44.3561V0Z" fill="#3F80D0"/>
        <path d="M95.6023 5.76222C91.2011 1.92175 85.2841 0 77.8543 0H51.4077V8.72945H66.9719L77.8543 8.78988C81.5021 8.78988 84.485 9.64802 86.803 11.3613C89.3803 13.2709 90.6582 15.9723 90.6369 19.4683C90.6155 24.3089 88.6055 27.6055 84.607 29.3641C82.7495 30.1678 80.4986 30.5697 77.8543 30.5697V15.1987H66.9719V39H77.8543C84.4087 39 89.9171 37.459 94.3731 34.3769C99.4422 30.8598 101.955 25.9768 101.913 19.7281C101.891 14.0626 99.7868 9.40931 95.6053 5.76222H95.6023Z" fill="#3F80D0"/>
        <path d="M0.0976 0H0V0.0211513V0.0423026V39H0.0976H10.98H11.0014V23.7952H26.2392H26.352H26.4496V15.1957H26.2392V15.235H11.0014V9.05578V8.75362H26.4496V0H0.13725H0.0976Z" fill="#3F80D0"/>
    </g>
    <defs>
        <clipPath id="clip0_3_111">
            <rect width="244" height="39" fill="white"/>
        </clipPath>
    </defs>
</svg>
