<svg width="30" height="30" viewBox="0 0 30 30" fill="none" xmlns="http://www.w3.org/2000/svg">
    <path d="M15.6789 19.9125L25.6351 9.46313C25.8013 9.28877 25.894 9.05713 25.894 8.81625C25.894 8.57537 25.8013 8.34373 25.6351 8.16938L25.6239 8.15813C25.5433 8.07331 25.4463 8.00578 25.3388 7.95962C25.2313 7.91347 25.1155 7.88967 24.9986 7.88967C24.8816 7.88967 24.7658 7.91347 24.6583 7.95962C24.5508 8.00578 24.4538 8.07331 24.3732 8.15813L14.9982 17.9981L5.62699 8.15813C5.54641 8.07331 5.44943 8.00577 5.34193 7.95962C5.23443 7.91347 5.11866 7.88967 5.00168 7.88967C4.88469 7.88967 4.76893 7.91347 4.66143 7.95962C4.55393 8.00577 4.45694 8.07331 4.37636 8.15813L4.36512 8.16938C4.19891 8.34373 4.10619 8.57537 4.10619 8.81625C4.10618 9.05713 4.1989 9.28877 4.36512 9.46313L14.3214 19.9125C14.4089 20.0044 14.5142 20.0776 14.6309 20.1275C14.7476 20.1775 14.8732 20.2033 15.0001 20.2033C15.127 20.2033 15.2527 20.1775 15.3693 20.1275C15.486 20.0776 15.5913 20.0044 15.6789 19.9125Z" fill="black"/>
</svg>
