<svg width="9" height="5" viewBox="0 0 11 6" fill="none" xmlns="http://www.w3.org/2000/svg">
<path d="M0.550331 6H10.4506C10.5508 5.99977 10.6491 5.97963 10.7348 5.94174C10.8205 5.90386 10.8904 5.84967 10.9369 5.78499C10.9835 5.72032 11.005 5.64763 10.999 5.57473C10.9931 5.50183 10.96 5.43149 10.9033 5.37128L5.95313 0.161989C5.74798 -0.0539963 5.25407 -0.0539963 5.04836 0.161989L0.0982183 5.37128C0.0409204 5.43136 0.00731955 5.50174 0.00106644 5.57476C-0.00518667 5.64778 0.0161471 5.72065 0.06275 5.78546C0.109353 5.85027 0.179442 5.90453 0.265403 5.94235C0.351364 5.98018 0.449909 6.00011 0.550331 6Z" fill="#ffffff"/>
</svg>
