<svg width="20" height="16" viewBox="0 0 20 16" fill="none"
     xmlns="http://www.w3.org/2000/svg">
    <path
            d="M3.22062 16C2.6215 16 2.04691 15.7686 1.62326 15.3568C1.19961 14.9449 0.961609 14.3864 0.961609 13.8039V10.6667C0.961609 10.4171 1.06361 10.1777 1.24517 10.0012C1.42674 9.82465 1.67299 9.72549 1.92976 9.72549C2.18653 9.72549 2.43278 9.82465 2.61434 10.0012C2.79591 10.1777 2.89791 10.4171 2.89791 10.6667V13.8039C2.89791 13.9771 3.04248 14.1177 3.22062 14.1177H16.7747C16.8603 14.1177 16.9424 14.0846 17.0029 14.0258C17.0634 13.9669 17.0974 13.8871 17.0974 13.8039V10.6667C17.0974 10.4171 17.1994 10.1777 17.381 10.0012C17.5626 9.82465 17.8088 9.72549 18.0656 9.72549C18.3223 9.72549 18.5686 9.82465 18.7502 10.0012C18.9317 10.1777 19.0337 10.4171 19.0337 10.6667V13.8039C19.0337 14.3864 18.7957 14.9449 18.3721 15.3568C17.9484 15.7686 17.3738 16 16.7747 16H3.22062Z"
            fill="black"></path>
    <path
            d="M9.02952 8.08031V0.941177C9.02952 0.691561 9.13152 0.452169 9.31308 0.275664C9.49465 0.0991594 9.7409 0 9.99767 0C10.2544 0 10.5007 0.0991594 10.6823 0.275664C10.8638 0.452169 10.9658 0.691561 10.9658 0.941177V8.08031L13.5088 5.60941C13.5987 5.52207 13.7053 5.45279 13.8227 5.40552C13.9401 5.35825 14.0659 5.33392 14.193 5.33392C14.32 5.33392 14.4459 5.35825 14.5632 5.40552C14.6806 5.45279 14.7873 5.52207 14.8771 5.60941C14.967 5.69675 15.0383 5.80044 15.0869 5.91456C15.1355 6.02868 15.1605 6.15099 15.1605 6.27451C15.1605 6.39803 15.1355 6.52034 15.0869 6.63446C15.0383 6.74858 14.967 6.85227 14.8771 6.93961L10.6818 11.018C10.592 11.1055 10.4854 11.1748 10.368 11.2221C10.2506 11.2695 10.1248 11.2938 9.99767 11.2938C9.87058 11.2938 9.74474 11.2695 9.62735 11.2221C9.50996 11.1748 9.40331 11.1055 9.31351 11.018L5.1182 6.93961C5.02835 6.85227 4.95708 6.74858 4.90846 6.63446C4.85983 6.52034 4.83481 6.39803 4.83481 6.27451C4.83481 6.15099 4.85983 6.02868 4.90846 5.91456C4.95708 5.80044 5.02835 5.69675 5.1182 5.60941C5.20804 5.52207 5.3147 5.45279 5.43209 5.40552C5.54948 5.35825 5.67529 5.33392 5.80235 5.33392C5.92941 5.33392 6.05523 5.35825 6.17262 5.40552C6.29001 5.45279 6.39667 5.52207 6.48651 5.60941L9.02952 8.08031Z"
            fill="black"></path>
</svg>