<svg width="95" height="37" viewBox="0 0 95 37" fill="none" xmlns="http://www.w3.org/2000/svg">
<path d="M41.3 0H31.2V36.7H55.6V28.5H41.3V0Z" fill="#0876A6"/>
<path d="M89 5.4C84.9 1.8 79.4 0 72.5 0H63.3H62.3H47.9V8.2H62.4L72.5 8.3C75.9 8.3 78.7 9.1 80.8 10.7C83.2 12.5 84.4 15 84.4 18.3C84.4 22.8 82.5 25.9 78.8 27.6C77.1 28.4 75 28.7 72.5 28.7V14.6V14.4V14.3H62.4V14.4V14.6V36.7H72.5C78.6 36.7 83.7 35.3 87.9 32.4C92.6 29.1 95 24.5 94.9 18.6C94.9 13.2 92.9 8.9 89 5.4Z" fill="#0876A6"/>
<path d="M0.0999999 0H0V0.0999999V36.7H0.0999999H10.2H10.3V22.4H24.4H24.5H24.6V14.3H24.4H10.3V8.5V8.3H24.6V0H0.0999999Z" fill="#0876A6"/>
</svg>
