<svg width="16" height="16" viewBox="0 0 16 16" fill="none" xmlns="http://www.w3.org/2000/svg">
    <g clip-path="url(#clip0_194_119)">
        <path d="M14.5 0H1.5C0.675 0 0 0.675 0 1.5V14.5C0 15.325 0.675 16 1.5 16H14.5C15.325 16 16 15.325 16 14.5V1.5C16 0.675 15.325 0 14.5 0ZM12.959 11.2L11.496 11.222C11.496 11.222 11.18 11.285 10.768 11C10.221 10.625 9.705 9.647 9.302 9.775C8.896 9.903 8.908 10.781 8.908 10.781C8.908 10.781 8.911 10.969 8.817 11.068C8.717 11.177 8.517 11.199 8.517 11.199H7.864C7.864 11.199 6.42 11.287 5.148 9.961C3.76 8.517 2.536 5.652 2.536 5.652C2.536 5.652 2.464 5.464 2.542 5.374C2.629 5.271 2.864 5.265 2.864 5.265L4.43 5.256C4.43 5.256 4.577 5.281 4.683 5.359C4.771 5.422 4.817 5.543 4.817 5.543C4.817 5.543 5.07 6.184 5.405 6.762C6.058 7.89 6.364 8.137 6.586 8.018C6.908 7.843 6.811 6.421 6.811 6.421C6.811 6.421 6.817 5.905 6.649 5.677C6.518 5.499 6.271 5.446 6.165 5.433C6.077 5.42 6.221 5.217 6.409 5.124C6.69 4.986 7.187 4.977 7.775 4.983C8.231 4.986 8.366 5.017 8.544 5.058C9.085 5.189 8.9 5.692 8.9 6.899C8.9 7.287 8.831 7.83 9.109 8.008C9.228 8.086 9.521 8.02 10.256 6.774C10.603 6.183 10.865 5.49 10.865 5.49C10.865 5.49 10.921 5.365 11.009 5.312C11.1 5.259 11.222 5.275 11.222 5.275L12.869 5.266C12.869 5.266 13.363 5.207 13.444 5.432C13.528 5.666 13.26 6.213 12.588 7.11C11.485 8.582 11.36 8.444 12.279 9.294C13.154 10.107 13.335 10.503 13.367 10.553C13.723 11.153 12.961 11.2 12.961 11.2H12.959Z" fill="white"/>
    </g>
    <defs>
        <clipPath id="clip0_194_119">
            <rect width="16" height="16" fill="white"/>
        </clipPath>
    </defs>
</svg>
