<svg width="16" height="16" viewBox="0 0 16 16" fill="none" xmlns="http://www.w3.org/2000/svg">
    <g clip-path="url(#clip0_194_121)">
        <rect x="-8.66699" y="-6.66666" width="33.3333" height="29.3333" rx="4" fill="white"/>
        <path d="M6.66634 10L10.1263 8.00001L6.66634 6.00001V10ZM14.373 4.78001C14.4597 5.09334 14.5197 5.51334 14.5597 6.04668C14.6063 6.58001 14.6263 7.04001 14.6263 7.44001L14.6663 8.00001C14.6663 9.46001 14.5597 10.5333 14.373 11.22C14.2063 11.82 13.8197 12.2067 13.2197 12.3733C12.9063 12.46 12.333 12.52 11.453 12.56C10.5863 12.6067 9.79301 12.6267 9.05967 12.6267L7.99967 12.6667C5.20634 12.6667 3.46634 12.56 2.77967 12.3733C2.17967 12.2067 1.79301 11.82 1.62634 11.22C1.53967 10.9067 1.47967 10.4867 1.43967 9.95334C1.39301 9.42001 1.37301 8.96001 1.37301 8.56001L1.33301 8.00001C1.33301 6.54001 1.43967 5.46668 1.62634 4.78001C1.79301 4.18001 2.17967 3.79334 2.77967 3.62668C3.09301 3.54001 3.66634 3.48001 4.54634 3.44001C5.41301 3.39334 6.20634 3.37334 6.93967 3.37334L7.99967 3.33334C10.793 3.33334 12.533 3.44001 13.2197 3.62668C13.8197 3.79334 14.2063 4.18001 14.373 4.78001Z" fill="#001f42"/>
    </g>
    <defs>
        <clipPath id="clip0_194_121">
            <rect width="16" height="16" rx="1" fill="white"/>
        </clipPath>
    </defs>
</svg>
